<?xml version="1.0" encoding="utf-8"?>
<!-- Generator: Adobe Illustrator 25.0.1, SVG Export Plug-In . SVG Version: 6.00 Build 0)  -->
<!DOCTYPE svg PUBLIC "-//W3C//DTD SVG 1.1//EN" "http://www.w3.org/Graphics/SVG/1.1/DTD/svg11.dtd" [
	<!ENTITY st0 "fill:#FE94A0;">
]>
<svg version="1.1" id="Layer_1" xmlns="http://www.w3.org/2000/svg" xmlns:xlink="http://www.w3.org/1999/xlink" x="0px" y="0px"
	 viewBox="0 0 800 190" style="enable-background:new 0 0 800 190;" xml:space="preserve">
<path style="&st0;" d="M150.323,19.717H39.677C28.81,19.717,20,28.526,20,39.394V150.04c0,10.867,8.81,19.677,19.677,19.677h110.646
	c10.867,0,19.677-8.81,19.677-19.677V39.394C170,28.526,161.19,19.717,150.323,19.717z M112.59,149.767V88.312h-6.732v61.672h-7.492
	V74.74h-6.732v75.244h-7.492V88.312H77.41v61.455l-46.364-46.364L95,39.449l63.954,63.953L112.59,149.767z"/>
<g>
	<path style="&st0;" d="M215.963,126.628c-6.056,0-14.069-1.864-17.609-5.87c-0.559-0.653-0.931-1.491-0.931-2.422
		c0-2.329,2.049-4.193,4.285-4.193c0.746,0,1.584,0.187,2.237,0.653c3.447,2.329,8.106,4.006,12.392,4.006
		c5.87,0,8.758-2.516,8.758-5.963c0-8.757-27.206-2.423-27.206-19.752c0-7.36,6.429-13.696,17.889-13.696
		c6.056,0,12.857,1.864,15.932,5.404c0.559,0.652,0.839,1.398,0.839,2.237c0,2.143-1.864,3.82-4.007,3.82
		c-0.652,0-1.397-0.187-2.049-0.559c-2.888-1.957-6.708-3.168-10.715-3.168c-5.032,0-8.199,2.423-8.199,5.497
		c0,7.92,27.113,1.957,27.113,19.846C234.691,120.479,228.075,126.628,215.963,126.628z"/>
	<path style="&st0;" d="M264.876,126.628c-14.442,0-23.2-10.715-23.2-23.665c0-12.859,8.758-23.573,23.2-23.573
		c14.442,0,23.2,10.715,23.2,23.573C288.076,115.914,279.318,126.628,264.876,126.628z M264.876,88.241
		c-8.292,0-12.857,6.895-12.857,14.722c0,7.919,4.565,14.814,12.857,14.814c8.199,0,12.765-6.894,12.765-14.814
		C277.641,95.136,273.075,88.241,264.876,88.241z"/>
	<path style="&st0;" d="M332.796,121.597c-3.261,2.982-7.919,5.032-14.44,5.032c-13.697,0-23.294-9.97-23.294-23.665
		c0-13.604,9.597-23.573,23.294-23.573c6.894,0,12.67,2.422,15.186,6.056c0.465,0.559,0.652,1.305,0.652,2.05
		c0,2.608-2.329,4.286-4.658,4.286c-1.025,0-2.049-0.28-2.887-0.932c-2.33-1.77-4.938-2.609-7.827-2.609
		c-8.106,0-13.51,6.056-13.51,14.722c0,8.664,5.405,14.814,13.51,14.814c2.982,0,5.497-0.931,7.827-2.701
		c0.931-0.653,1.862-0.933,2.887-0.933c2.422,0,4.752,1.771,4.752,4.38C334.287,119.641,333.821,120.852,332.796,121.597z"/>
	<path style="&st0;" d="M355.249,68.861c0,3.447-2.794,6.15-6.148,6.15c-3.355,0-6.15-2.702-6.15-6.15
		c0-3.354,2.794-6.056,6.15-6.056C352.454,62.805,355.249,65.507,355.249,68.861z M349.1,126.069c-2.796,0-4.938-2.236-4.938-4.938
		V84.794c0-2.608,2.143-4.845,5.124-4.845c2.609,0,4.845,2.237,4.845,4.845v36.337C354.131,123.833,351.895,126.069,349.1,126.069z"
		/>
	<path style="&st0;" d="M399.132,126.069h-0.56c-1.305,0-4.472-1.118-4.472-4.565v-0.838c-3.262,3.82-8.572,5.963-14.442,5.963
		c-7.361,0-15.746-4.938-15.746-14.908c0-10.342,8.385-14.628,15.746-14.628c5.963,0,11.273,1.956,14.442,5.777v-6.895
		c0-5.125-4.287-8.293-10.436-8.293c-3.912,0-7.453,1.025-10.715,3.448c-0.558,0.372-1.303,0.652-2.049,0.652
		c-1.863,0-3.914-1.491-3.914-3.914c0-0.746,0.28-1.584,0.746-2.143c3.54-4.473,11.833-6.336,17.516-6.336
		c9.97,0,18.82,4.193,18.82,16.305v25.436C404.069,123.833,401.833,126.069,399.132,126.069z M394.101,108.459
		c-2.236-2.981-6.336-4.472-10.621-4.472c-5.311,0-9.41,2.981-9.41,7.919c0,4.752,4.099,7.827,9.41,7.827
		c4.285,0,8.385-1.491,10.621-4.566V108.459z"/>
	<path style="&st0;" d="M421.677,126.069c-2.796,0-4.938-2.236-4.938-4.938V67.65c0-2.609,2.143-4.845,5.124-4.845
		c2.609,0,4.845,2.236,4.845,4.845v53.48C426.708,123.833,424.472,126.069,421.677,126.069z"/>
	<path style="&st0;" d="M478.695,126.628c-6.056,0-14.069-1.864-17.61-5.87c-0.558-0.653-0.931-1.491-0.931-2.422
		c0-2.329,2.051-4.193,4.287-4.193c0.745,0,1.583,0.187,2.236,0.653c3.447,2.329,8.106,4.006,12.391,4.006
		c5.87,0,8.759-2.516,8.759-5.963c0-8.757-27.206-2.423-27.206-19.752c0-7.36,6.428-13.696,17.889-13.696
		c6.056,0,12.857,1.864,15.933,5.404c0.558,0.652,0.838,1.398,0.838,2.237c0,2.143-1.864,3.82-4.007,3.82
		c-0.652,0-1.398-0.187-2.049-0.559c-2.889-1.957-6.708-3.168-10.715-3.168c-5.032,0-8.199,2.423-8.199,5.497
		c0,7.92,27.113,1.957,27.113,19.846C497.422,120.479,490.807,126.628,478.695,126.628z"/>
	<path style="&st0;" d="M542.608,126.069c-2.796,0-4.938-2.236-4.938-4.938V97.278c0-6.894-3.634-9.038-9.13-9.038
		c-4.845,0-9.132,2.889-11.367,5.963v26.927c0,2.702-2.236,4.938-5.03,4.938c-2.796,0-4.938-2.236-4.938-4.938V67.65
		c0-2.609,2.143-4.845,5.124-4.845c2.609,0,4.845,2.236,4.845,4.845v19.007c2.982-3.54,8.758-7.267,15.933-7.267
		c9.69,0,14.535,5.125,14.535,14.255v27.486C547.639,123.833,545.403,126.069,542.608,126.069z"/>
	<path style="&st0;" d="M592.639,126.069h-0.56c-1.305,0-4.472-1.118-4.472-4.565v-0.838c-3.262,3.82-8.572,5.963-14.442,5.963
		c-7.361,0-15.746-4.938-15.746-14.908c0-10.342,8.385-14.628,15.746-14.628c5.963,0,11.273,1.956,14.442,5.777v-6.895
		c0-5.125-4.287-8.293-10.436-8.293c-3.912,0-7.453,1.025-10.715,3.448c-0.558,0.372-1.303,0.652-2.049,0.652
		c-1.863,0-3.914-1.491-3.914-3.914c0-0.746,0.28-1.584,0.746-2.143c3.54-4.473,11.833-6.336,17.516-6.336
		c9.97,0,18.82,4.193,18.82,16.305v25.436C597.576,123.833,595.34,126.069,592.639,126.069z M587.607,108.459
		c-2.236-2.981-6.336-4.472-10.621-4.472c-5.311,0-9.41,2.981-9.41,7.919c0,4.752,4.099,7.827,9.41,7.827
		c4.285,0,8.385-1.491,10.621-4.566V108.459z"/>
	<path style="&st0;" d="M646.768,126.069c-2.796,0-4.938-2.236-4.938-4.938v-1.77c-3.54,4.565-8.665,7.267-14.442,7.267
		c-11.46,0-19.938-8.759-19.938-23.572c0-14.536,8.385-23.667,19.938-23.667c5.591,0,10.808,2.609,14.442,7.267V67.743
		c0-2.702,2.143-4.938,5.125-4.938c2.609,0,4.845,2.236,4.845,4.938v53.387C651.8,123.833,649.564,126.069,646.768,126.069z
		 M641.83,94.204c-2.236-3.354-6.894-5.963-11.553-5.963c-7.641,0-12.579,6.15-12.579,14.815c0,8.571,4.938,14.72,12.579,14.72
		c4.658,0,9.317-2.609,11.553-5.87V94.204z"/>
	<path style="&st0;" d="M684.873,126.628c-14.442,0-23.2-10.715-23.2-23.665c0-12.859,8.758-23.573,23.2-23.573
		c14.441,0,23.199,10.715,23.199,23.573C708.072,115.914,699.314,126.628,684.873,126.628z M684.873,88.241
		c-8.292,0-12.859,6.895-12.859,14.722c0,7.919,4.566,14.814,12.859,14.814c8.199,0,12.764-6.894,12.764-14.814
		C697.637,95.136,693.072,88.241,684.873,88.241z"/>
	<path style="&st0;" d="M779.72,86.098l-10.901,35.219c-0.838,2.796-3.54,4.752-6.429,4.752h-0.185
		c-2.982,0-5.591-1.956-6.429-4.752l-9.038-28.604l-9.037,28.604c-0.838,2.796-3.541,4.752-6.521,4.752h-0.187
		c-2.889,0-5.498-1.956-6.336-4.752l-10.994-35.219c-0.093-0.466-0.187-0.931-0.187-1.398c0-2.329,1.957-4.752,4.938-4.752
		c2.143,0,4.193,1.398,4.752,3.448l8.572,29.535l9.503-29.069c0.745-2.329,2.889-3.914,5.59-3.914c2.423,0,4.566,1.584,5.405,3.914
		l9.503,29.069l8.572-29.535c0.558-2.05,2.609-3.448,4.752-3.448c2.888,0,4.938,2.237,4.938,4.752
		C780,85.167,779.907,85.632,779.72,86.098z"/>
</g>
</svg>
