<?xml version="1.0" encoding="utf-8"?>
<!-- Generator: Adobe Illustrator 25.0.1, SVG Export Plug-In . SVG Version: 6.00 Build 0)  -->
<svg version="1.1" id="Layer_1" xmlns="http://www.w3.org/2000/svg" xmlns:xlink="http://www.w3.org/1999/xlink" x="0px" y="0px"
	 viewBox="0 0 187.8 97" style="enable-background:new 0 0 187.8 97;" xml:space="preserve">
<style type="text/css">
	.st0{fill:#253B80;}
	.st1{fill:#FFFFFF;}
	.st2{fill:#B1B9D2;}
	.st3{fill:#E6E6E6;}
</style>
<rect class="st0" width="187.8" height="97"/>
<g>
	<path class="st1" d="M73.4,35.8h-8.9c-0.6,0-1.1,0.4-1.2,1l-3.6,22.9c-0.1,0.5,0.3,0.9,0.7,0.9h4.3c0.6,0,1.1-0.4,1.2-1l1-6.2
		c0.1-0.6,0.6-1,1.2-1h2.8c5.9,0,9.3-2.8,10.2-8.5c0.4-2.5,0-4.4-1.1-5.8C78.6,36.6,76.4,35.8,73.4,35.8z M74.4,44.1
		c-0.5,3.2-2.9,3.2-5.3,3.2h-1.3l0.9-6c0.1-0.4,0.4-0.6,0.7-0.6H70c1.6,0,3.1,0,3.9,0.9C74.4,42.2,74.6,43,74.4,44.1z"/>
	<path class="st1" d="M100.1,44h-4.3c-0.4,0-0.7,0.3-0.7,0.6l-0.2,1.2l-0.3-0.4c-0.9-1.3-3-1.8-5.1-1.8c-4.7,0-8.8,3.6-9.6,8.6
		c-0.4,2.5,0.2,4.9,1.6,6.6c1.3,1.5,3.2,2.2,5.4,2.2c3.8,0,5.9-2.5,5.9-2.5l-0.2,1.2c-0.1,0.5,0.3,0.9,0.7,0.9h3.9
		c0.6,0,1.1-0.4,1.2-1l2.3-14.6C100.9,44.4,100.5,44,100.1,44z M94.1,52.4c-0.4,2.4-2.4,4.1-4.8,4.1c-1.2,0-2.2-0.4-2.9-1.2
		c-0.6-0.8-0.9-1.8-0.7-3c0.4-2.4,2.4-4.1,4.8-4.1c1.2,0,2.2,0.4,2.9,1.2C94,50.1,94.3,51.2,94.1,52.4z"/>
	<path class="st1" d="M122.9,44h-4.3c-0.4,0-0.8,0.2-1,0.5l-5.9,8.7l-2.5-8.4c-0.2-0.5-0.6-0.9-1.2-0.9h-4.2c-0.5,0-0.9,0.5-0.7,1
		l4.7,13.9l-4.5,6.3c-0.3,0.5,0,1.2,0.6,1.2h4.3c0.4,0,0.8-0.2,1-0.5l14.3-20.6C123.8,44.7,123.5,44,122.9,44z"/>
	<path class="st2" d="M137.1,35.7h-8.9c-0.6,0-1.1,0.4-1.2,1l-3.6,22.9c-0.1,0.5,0.3,0.9,0.7,0.9h4.6c0.4,0,0.8-0.3,0.9-0.7l1-6.5
		c0.1-0.6,0.6-1,1.2-1h2.8c5.9,0,9.3-2.8,10.2-8.5c0.4-2.5,0-4.4-1.1-5.8C142.4,36.5,140.1,35.7,137.1,35.7z M138.1,44
		c-0.5,3.2-2.9,3.2-5.3,3.2h-1.3l0.9-6c0.1-0.4,0.4-0.6,0.7-0.6h0.6c1.6,0,3.1,0,3.9,0.9C138.2,42.1,138.3,42.9,138.1,44z"/>
	<path class="st2" d="M163.8,43.9h-4.3c-0.4,0-0.7,0.3-0.7,0.6l-0.2,1.2l-0.3-0.4c-0.9-1.3-3-1.8-5.1-1.8c-4.7,0-8.8,3.6-9.6,8.6
		c-0.4,2.5,0.2,4.9,1.6,6.6c1.3,1.5,3.2,2.2,5.4,2.2c3.8,0,5.9-2.5,5.9-2.5l-0.2,1.2c-0.1,0.5,0.3,0.9,0.7,0.9h3.9
		c0.6,0,1.1-0.4,1.2-1l2.3-14.6C164.6,44.4,164.3,43.9,163.8,43.9z M157.9,52.3c-0.4,2.4-2.4,4.1-4.8,4.1c-1.2,0-2.2-0.4-2.9-1.2
		c-0.6-0.8-0.9-1.8-0.7-3c0.4-2.4,2.4-4.1,4.8-4.1c1.2,0,2.2,0.4,2.9,1.2C157.8,50,158.1,51.1,157.9,52.3z"/>
	<path class="st2" d="M168.9,36.3l-3.7,23.3c-0.1,0.5,0.3,0.9,0.7,0.9h3.7c0.6,0,1.1-0.4,1.2-1l3.6-22.9c0.1-0.5-0.3-0.9-0.7-0.9
		h-4.1C169.2,35.7,168.9,35.9,168.9,36.3z"/>
</g>
<g>
	<path class="st2" d="M43,39.7L43,39.7L43,39.7c0,0.2-0.1,0.4-0.1,0.7c-1.5,7.6-6.5,10.2-13,10.2h-3.3c-0.8,0-1.5,0.6-1.6,1.3l0,0
		l0,0l-1.7,10.7l-0.5,3c-0.1,0.5,0.3,1,0.8,1h5.8c0.7,0,1.3-0.5,1.4-1.2l0.1-0.3l1.1-7l0.1-0.4c0.1-0.7,0.7-1.2,1.4-1.2h0.9
		c5.6,0,10.1-2.3,11.3-8.9c0.5-2.8,0.3-5.1-1.2-6.7C44.1,40.5,43.6,40,43,39.7z"/>
	<path class="st3" d="M41.4,39.1C41.2,39,41,39,40.7,38.9c-0.2-0.1-0.5-0.1-0.7-0.1c-0.9-0.1-1.9-0.2-2.9-0.2h-8.8
		c-0.2,0-0.4,0-0.6,0.1c-0.4,0.2-0.7,0.6-0.8,1L25,51.5v0.4c0.1-0.8,0.8-1.3,1.6-1.3h3.3c6.4,0,11.5-2.6,13-10.2
		c0-0.2,0.1-0.4,0.1-0.7c-0.4-0.2-0.8-0.4-1.2-0.5C41.6,39.2,41.5,39.1,41.4,39.1z"/>
	<path class="st1" d="M26.9,39.8c0.1-0.5,0.4-0.9,0.8-1c0.2-0.1,0.4-0.1,0.6-0.1h8.8c1,0,2,0.1,2.9,0.2c0.3,0,0.5,0.1,0.7,0.1
		c0.2,0.1,0.5,0.1,0.7,0.2c0.1,0,0.2,0.1,0.3,0.1c0.4,0.1,0.8,0.3,1.2,0.5c0.4-2.8,0-4.7-1.5-6.4c-1.7-1.9-4.7-2.7-8.5-2.7H21.7
		c-0.8,0-1.5,0.6-1.6,1.4l-4.7,29.5c-0.1,0.6,0.4,1.1,0.9,1.1h6.9l1.7-11L26.9,39.8z"/>
</g>
</svg>
