<?xml version="1.0" encoding="utf-8"?>
<!-- Generator: Adobe Illustrator 25.0.1, SVG Export Plug-In . SVG Version: 6.00 Build 0)  -->
<!DOCTYPE svg PUBLIC "-//W3C//DTD SVG 1.1//EN" "http://www.w3.org/Graphics/SVG/1.1/DTD/svg11.dtd" [
	<!ENTITY st0 "fill:#FE94A0;">
	<!ENTITY st1 "fill:#FFFFFF;">
]>
<svg version="1.1" id="Layer_1" xmlns="http://www.w3.org/2000/svg" xmlns:xlink="http://www.w3.org/1999/xlink" x="0px" y="0px"
	 viewBox="0 0 250 250" style="enable-background:new 0 0 250 250;" xml:space="preserve">
<path style="&st0;" d="M223.999,243.676H26.001c-10.867,0-19.677-8.81-19.677-19.677V26.001c0-10.867,8.81-19.677,19.677-19.677
	h197.998c10.867,0,19.677,8.81,19.677,19.677v197.998C243.676,234.866,234.866,243.676,223.999,243.676z"/>
<polygon style="&st1;" points="97.167,114.865 107.819,114.865 107.819,212.452 119.674,212.452 119.674,93.389 130.326,93.389 
	130.326,212.452 142.181,212.452 142.181,114.865 152.833,114.865 152.833,212.109 226.197,138.745 125,37.548 23.803,138.745 
	97.167,212.109 "/>
</svg>
