<?xml version="1.0" encoding="utf-8"?>
<!-- Generator: Adobe Illustrator 25.0.1, SVG Export Plug-In . SVG Version: 6.00 Build 0)  -->
<svg version="1.1" id="Layer_1" xmlns="http://www.w3.org/2000/svg" xmlns:xlink="http://www.w3.org/1999/xlink" x="0px" y="0px"
	 viewBox="0 0 187.8 97" style="enable-background:new 0 0 187.8 97;" xml:space="preserve">
<style type="text/css">
	.st0{fill:#6772E5;enable-background:new    ;}
	.st1{fill-rule:evenodd;clip-rule:evenodd;fill:#FFFFFF;enable-background:new    ;}
</style>
<rect class="st0" width="187.8" height="97"/>
<g>
	<path class="st1" d="M152.9,49.3c0-8.2-4-14.7-11.6-14.7c-7.6,0-12.2,6.5-12.2,14.6c0,9.6,5.5,14.5,13.3,14.5
		c3.8,0,6.7-0.9,8.9-2.1v-6.4c-2.2,1.1-4.7,1.8-7.9,1.8c-3.1,0-5.9-1.1-6.2-4.9h15.7C152.8,51.8,152.9,50.1,152.9,49.3z M137.1,46.3
		c0-3.6,2.2-5.1,4.2-5.1c2,0,4,1.5,4,5.1H137.1z"/>
	<path class="st1" d="M116.2,34.6c-3.1,0-5.2,1.5-6.3,2.5l-0.4-2h-7l0,37.3l8-1.7l0-9.1c1.1,0.8,2.9,2,5.7,2h0c5.7,0,11-4.6,11-14.8
		C127.1,39.7,121.8,34.6,116.2,34.6z M114.3,56.7c-1.9,0-3-0.7-3.8-1.5l0-11.9c0.8-0.9,2-1.6,3.8-1.6c2.9,0,4.9,3.3,4.9,7.5
		C119.2,53.5,117.3,56.7,114.3,56.7z"/>
	<rect x="90.9" y="35.2" class="st1" width="8" height="28"/>
	<polygon class="st1" points="90.9,26.2 98.9,24.5 98.9,31 90.9,32.7 	"/>
	<path class="st1" d="M82.4,44.2v19h-8v-28h6.9l0.5,2.4c1.9-3.4,5.6-2.7,6.7-2.4v7.4C87.4,42.2,84.2,41.7,82.4,44.2L82.4,44.2z"/>
	<path class="st1" d="M65.2,53.4c0,4.7,5,3.2,6.1,2.8v6.5c-1.1,0.6-3,1.1-5.6,1.1c-4.7,0-8.3-3.5-8.3-8.2l0-25.7l7.8-1.7l0,6.9h6.1
		V42h-6.1L65.2,53.4z"/>
	<path class="st1" d="M55.2,54.7c0,5.8-4.6,9-11.2,9c-2.8,0-5.8-0.5-8.7-1.8v-7.6c2.7,1.5,6.1,2.6,8.8,2.6c1.8,0,3.1-0.5,3.1-2
		c0-3.8-12.2-2.4-12.2-11.2c0-5.7,4.3-9.1,10.8-9.1c2.7,0,5.3,0.4,8,1.5v7.5c-2.4-1.3-5.5-2.1-8-2.1c-1.7,0-2.7,0.5-2.7,1.7
		C43,46.9,55.2,45.2,55.2,54.7z"/>
</g>
</svg>
